<svg xmlns="http://www.w3.org/2000/svg" viewBox="0 0 64 64" role="img" aria-labelledby="title">
  <title id="title">IMX 雪花图标</title>
  <defs>
    <linearGradient id="glass" x1="10" y1="7" x2="54" y2="58" gradientUnits="userSpaceOnUse">
      <stop stop-color="#ffffff" stop-opacity=".78"/>
      <stop offset=".48" stop-color="#c7f2ff" stop-opacity=".42"/>
      <stop offset="1" stop-color="#4d8ee8" stop-opacity=".24"/>
    </linearGradient>
    <linearGradient id="ice" x1="19" y1="13" x2="45" y2="51" gradientUnits="userSpaceOnUse">
      <stop stop-color="#ffffff"/>
      <stop offset=".42" stop-color="#81dcff"/>
      <stop offset="1" stop-color="#4169d8"/>
    </linearGradient>
  </defs>
  <path d="M32 3 57 18v28L32 61 7 46V18z" fill="url(#glass)" stroke="#2d7bd4" stroke-width="1.5"/>
  <path d="M32 7 53 20v24L32 57 11 44V20z" fill="none" stroke="#ffffff" stroke-opacity=".52"/>
  <g fill="none" stroke="url(#ice)" stroke-linecap="round" stroke-linejoin="round">
    <path d="M32 11v42" stroke-width="3.5"/>
    <path d="M32 11v42" stroke-width="3.5" transform="rotate(60 32 32)"/>
    <path d="M32 11v42" stroke-width="3.5" transform="rotate(120 32 32)"/>
    <path d="m32 18-5 5m5-5 5 5m-5 23-5-5m5 5 5-5" stroke-width="2.25"/>
    <path d="m32 18-5 5m5-5 5 5m-5 23-5-5m5 5 5-5" stroke-width="2.25" transform="rotate(60 32 32)"/>
    <path d="m32 18-5 5m5-5 5 5m-5 23-5-5m5 5 5-5" stroke-width="2.25" transform="rotate(120 32 32)"/>
  </g>
  <path d="m32 25 6 3.5v7L32 39l-6-3.5v-7z" fill="#f3fcff" fill-opacity=".58" stroke="#397fda" stroke-width="1.5"/>
</svg>
