<svg xmlns="http://www.w3.org/2000/svg" viewBox="0 0 64 64" role="img" aria-label="IMX favicon">
  <g transform="translate(32 32)" fill="none" stroke="#fff" stroke-width="3.35" stroke-linecap="round" stroke-linejoin="round">
    <g>
      <path d="M0-5.9v-24.1"/>
      <path d="M0-13.2l-7.7-6.2"/>
      <path d="M0-13.2l7.7-6.2"/>
      <path d="M0-21.3l-9.3-7.1"/>
      <path d="M0-21.3l9.3-7.1"/>
    </g>
    <g transform="rotate(60)">
      <path d="M0-5.9v-24.1"/>
      <path d="M0-13.2l-7.7-6.2"/>
      <path d="M0-13.2l7.7-6.2"/>
      <path d="M0-21.3l-9.3-7.1"/>
      <path d="M0-21.3l9.3-7.1"/>
    </g>
    <g transform="rotate(120)">
      <path d="M0-5.9v-24.1"/>
      <path d="M0-13.2l-7.7-6.2"/>
      <path d="M0-13.2l7.7-6.2"/>
      <path d="M0-21.3l-9.3-7.1"/>
      <path d="M0-21.3l9.3-7.1"/>
    </g>
    <g transform="rotate(180)">
      <path d="M0-5.9v-24.1"/>
      <path d="M0-13.2l-7.7-6.2"/>
      <path d="M0-13.2l7.7-6.2"/>
      <path d="M0-21.3l-9.3-7.1"/>
      <path d="M0-21.3l9.3-7.1"/>
    </g>
    <g transform="rotate(240)">
      <path d="M0-5.9v-24.1"/>
      <path d="M0-13.2l-7.7-6.2"/>
      <path d="M0-13.2l7.7-6.2"/>
      <path d="M0-21.3l-9.3-7.1"/>
      <path d="M0-21.3l9.3-7.1"/>
    </g>
    <g transform="rotate(300)">
      <path d="M0-5.9v-24.1"/>
      <path d="M0-13.2l-7.7-6.2"/>
      <path d="M0-13.2l7.7-6.2"/>
      <path d="M0-21.3l-9.3-7.1"/>
      <path d="M0-21.3l9.3-7.1"/>
    </g>
    <circle cx="0" cy="0" r="5.1"/>
  </g>
</svg>
