<svg xmlns="http://www.w3.org/2000/svg" viewBox="0 0 64 64" role="img" aria-label="IMX favicon">
  <g transform="translate(32 32)" fill="none" stroke="#050505" stroke-width="3" stroke-linecap="round" stroke-linejoin="round">
    <g>
      <path d="M0-5.5v-25"/>
      <path d="M0-11.2l-6.1-4.8"/>
      <path d="M0-11.2l6.1-4.8"/>
      <path d="M0-18.8l-6.7-5.1"/>
      <path d="M0-18.8l6.7-5.1"/>
    </g>
    <g transform="rotate(60)">
      <path d="M0-5.5v-25"/>
      <path d="M0-11.2l-6.1-4.8"/>
      <path d="M0-11.2l6.1-4.8"/>
      <path d="M0-18.8l-6.7-5.1"/>
      <path d="M0-18.8l6.7-5.1"/>
    </g>
    <g transform="rotate(120)">
      <path d="M0-5.5v-25"/>
      <path d="M0-11.2l-6.1-4.8"/>
      <path d="M0-11.2l6.1-4.8"/>
      <path d="M0-18.8l-6.7-5.1"/>
      <path d="M0-18.8l6.7-5.1"/>
    </g>
    <g transform="rotate(180)">
      <path d="M0-5.5v-25"/>
      <path d="M0-11.2l-6.1-4.8"/>
      <path d="M0-11.2l6.1-4.8"/>
      <path d="M0-18.8l-6.7-5.1"/>
      <path d="M0-18.8l6.7-5.1"/>
    </g>
    <g transform="rotate(240)">
      <path d="M0-5.5v-25"/>
      <path d="M0-11.2l-6.1-4.8"/>
      <path d="M0-11.2l6.1-4.8"/>
      <path d="M0-18.8l-6.7-5.1"/>
      <path d="M0-18.8l6.7-5.1"/>
    </g>
    <g transform="rotate(300)">
      <path d="M0-5.5v-25"/>
      <path d="M0-11.2l-6.1-4.8"/>
      <path d="M0-11.2l6.1-4.8"/>
      <path d="M0-18.8l-6.7-5.1"/>
      <path d="M0-18.8l6.7-5.1"/>
    </g>
    <circle cx="0" cy="0" r="5.1"/>
  </g>
</svg>
