<svg xmlns="http://www.w3.org/2000/svg" viewBox="0 0 64 64" role="img" aria-label="IMX snowflake logo">
  <g fill="none" stroke="#000" stroke-width="3.25" stroke-linecap="round" stroke-linejoin="round">
    <path d="M32 9v46"/>
    <path d="M12.08 20.5 51.92 43.5"/>
    <path d="M12.08 43.5 51.92 20.5"/>
    <path d="m32 16-5.5 5.5"/>
    <path d="m32 16 5.5 5.5"/>
    <path d="m32 48-5.5-5.5"/>
    <path d="m32 48 5.5-5.5"/>
    <path d="m18.14 24 7.51-2.01"/>
    <path d="m18.14 24 2.01 7.51"/>
    <path d="m45.86 40-7.51 2.01"/>
    <path d="m45.86 40-2.01-7.51"/>
    <path d="m18.14 40 2.01-7.51"/>
    <path d="m18.14 40 7.51 2.01"/>
    <path d="m45.86 24-2.01 7.51"/>
    <path d="m45.86 24-7.51-2.01"/>
    <path d="M32 25.5 37.63 28.75v6.5L32 38.5l-5.63-3.25v-6.5L32 25.5z"/>
  </g>
</svg>
